ply
format ascii 1.0
element vertex 13
property float x
property float y
property float z
property uchar red
property uchar green
property uchar blue
end_header
-2.067147 -0.921942 2.060411 0 0 255
-1.337945 -1.172867 2.751545 0 0 255
-1.441048 -1.250175 2.954180 0 0 255
-1.436415 -1.291283 3.109738 0 0 255
-2.191405 -0.270124 3.030411 0 0 255
-2.387997 -0.417549 2.382230 0 0 255
-2.387603 -0.399241 2.310209 0 0 255
-4.063250 -0.646870 2.031967 0 0 255
-3.717225 -0.069319 1.693880 0 0 255
-4.353068 -1.151806 0.647524 0 0 255
-1.788017 -0.969403 2.774250 0 0 255
-1.760536 -0.985787 2.904983 0 0 255
-1.800576 -1.042455 3.068555 0 0 255
