ply
format ascii 1.0
element vertex 13
property float x
property float y
property float z
property uchar red
property uchar green
property uchar blue
end_header
-0.514949 0.136018 0.359998 0 255 0
-0.733535 0.225012 0.292248 0 255 0
-0.735353 0.268363 0.266070 0 255 0
-0.734735 0.301992 0.244110 0 255 0
-0.550765 0.395015 0.460001 0 255 0
-0.493345 0.243558 0.486500 0 255 0
-0.493345 0.243558 0.486500 0 255 0
-0.078540 0.310864 0.397372 0 255 0
-0.110151 0.213543 0.587831 0 255 0
0.127116 0.018383 0.330170 0 255 0
-0.623876 0.291713 0.310601 0 255 0
-0.623876 0.291713 0.310601 0 255 0
-0.615897 0.330220 0.285384 0 255 0
