ply
format ascii 1.0
element vertex 13
property float x
property float y
property float z
property uchar red
property uchar green
property uchar blue
end_header
-0.506929 0.152795 0.368116 255 0 0
-0.715720 0.226691 0.287911 255 0 0
-0.709011 0.271443 0.257316 255 0 0
-0.721828 0.300740 0.239483 255 0 0
-0.554567 0.401778 0.453001 255 0 0
-0.462970 0.273432 0.453928 255 0 0
-0.457580 0.259637 0.462076 255 0 0
-0.077086 0.310436 0.390621 255 0 0
-0.125841 0.250150 0.543454 255 0 0
0.090785 0.015218 0.353503 255 0 0
-0.621103 0.276820 0.322329 255 0 0
-0.636941 0.300807 0.311790 255 0 0
-0.640785 0.334103 0.289204 255 0 0
